<svg width="155" height="42" viewBox="0 0 155 42" fill="none" xmlns="http://www.w3.org/2000/svg">
<path d="M76.3113 10.5103L80.8968 5.54115L78.0461 2.45196L73.4725 7.40821V0.681641H69.4419V7.42111L64.8653 2.46325L62.0161 5.55082L66.5912 10.5103H61.3838V14.878H81.5306V10.5103H76.3113ZM69.4419 11.8018L69.43 11.7889L69.4419 11.776V11.8018Z" fill="#FE5823"/>
<path d="M120.28 20.0488H116.251V41.8892H120.28V20.0488Z" fill="#CFDFDC"/>
<path d="M73.4705 20.0488H69.4414V41.8892H73.4705V20.0488Z" fill="#CFDFDC"/>
<path d="M38.7458 25.5114V27.6896C38.7458 28.2185 39.091 28.6586 39.5522 28.7602C39.5121 28.7715 39.4749 28.7779 39.4347 28.7828H61.3803V28.8424L57.4033 33.1521H39.6147C39.5835 33.1554 39.5537 33.1602 39.5225 33.1715C39.0761 33.2811 38.7443 33.7181 38.7443 34.2356V36.6686C38.8455 37.1555 39.2457 37.5167 39.7263 37.5167H61.3803V41.886H38.7443C36.5974 41.8715 34.8447 40.048 34.7197 37.7521V24.1764C34.8447 21.8805 36.5959 20.0602 38.7443 20.0457H61.3803V24.4118H39.7561C39.1966 24.4118 38.7443 24.9003 38.7443 25.5082L38.7458 25.5114Z" fill="#CFDFDC"/>
<path d="M26.662 33.1538V37.5216C26.6501 39.9239 24.8499 41.8764 22.6315 41.8893H0L4.03353 37.5345V37.5216H21.9397C21.8787 37.5135 21.8132 37.4958 21.7477 37.4845C22.2476 37.4135 22.633 36.954 22.633 36.3962V34.2486C22.633 33.723 22.2863 33.2812 21.8281 33.1764C21.8712 33.1683 21.9129 33.1603 21.9545 33.1554H4.03353C1.89402 33.1474 0.142832 31.3416 0 29.0601V24.4183H0.0119027V24.4135C0.0119027 22.0901 1.69018 20.1876 3.80291 20.0505H21.5885C21.6391 20.0457 21.6882 20.0425 21.7433 20.0425C21.7983 20.0425 21.8504 20.0473 21.901 20.0505H26.6546L22.6255 24.4183H5.05418C4.55427 24.4183 4.1347 24.8069 4.03353 25.3196C4.02162 25.3905 4.01419 25.4695 4.01419 25.5453C4.01419 25.6211 4.02162 25.7001 4.03353 25.771V27.6897C4.03353 28.1701 4.31473 28.5781 4.71049 28.728C4.81018 28.7651 4.92177 28.786 5.04079 28.786H22.63C24.8469 28.8022 26.6487 30.7498 26.6606 33.157L26.662 33.1538Z" fill="#CFDFDC"/>
<path d="M108.191 24.4151V28.7813C108.178 31.1884 106.381 33.1361 104.162 33.1506H85.5613V37.5168L81.5322 41.8861V28.7796H102.981C103.036 28.7909 103.092 28.7974 103.151 28.7974C103.209 28.7974 103.265 28.7909 103.32 28.7796H103.472C103.445 28.7764 103.417 28.7716 103.39 28.7651C103.833 28.6507 104.162 28.2153 104.162 27.701V25.4954C104.162 24.9778 103.833 24.5457 103.39 24.4312C103.421 24.4248 103.454 24.4167 103.485 24.4135H103.305C103.255 24.4054 103.204 24.399 103.152 24.399C103.1 24.399 103.048 24.4054 102.999 24.4135H81.5337V20.0474H104.164C106.384 20.0619 108.179 22.0095 108.193 24.4135L108.191 24.4151Z" fill="#CFDFDC"/>
<path d="M155 41.8892H150.97L148.705 37.5182H139.653L136.895 33.1521H146.444L144.179 28.7827L143.685 27.8298L141.915 24.415H141.424L139.653 27.8298L139.159 28.7827L136.895 33.1521L134.633 37.5182L132.369 41.8892H128.34L130.604 37.5182L132.369 34.1098L132.866 33.1521L135.13 28.7827L137.392 24.415L139.653 20.0488H143.685L145.947 24.415L148.21 28.7827L150.473 33.1521L150.97 34.1098L152.736 37.5182L155 41.8892Z" fill="#CFDFDC"/>
</svg>
