<svg width="278" height="42" viewBox="0 0 278 42" fill="none" xmlns="http://www.w3.org/2000/svg">
<path d="M45.4272 28.735L59.3819 14.2075L50.7061 5.17554L36.7878 19.6652V0H24.5223V19.7031L10.5952 5.20881L1.92379 14.235L15.8465 28.7339H0V41.503H61.3112V28.7339H45.4272V28.735ZM24.5223 32.5112L24.4859 32.4733L24.5223 32.4355V32.5112Z" fill="#FE5823"/>
<path d="M234.88 14.5159H229.876V41.6403H234.88V14.5159Z" fill="#02272F"/>
<path d="M176.746 14.5159H171.742V41.6403H176.746V14.5159Z" fill="#02272F"/>
<path d="M133.62 21.2997V24.005C133.62 24.6617 134.048 25.2084 134.621 25.3346C134.571 25.3486 134.525 25.3566 134.475 25.3626H161.73V25.4367L156.791 30.7891H134.699C134.66 30.7931 134.623 30.7991 134.584 30.8131C134.03 30.9493 133.618 31.4919 133.618 32.1347V35.1563C133.744 35.761 134.241 36.2096 134.837 36.2096H161.73V41.6361H133.618C130.952 41.618 128.775 39.3533 128.62 36.5019V19.6417C128.775 16.7903 130.95 14.5296 133.618 14.5116H161.73V19.9341H134.874C134.18 19.9341 133.618 20.5408 133.618 21.2957L133.62 21.2997Z" fill="#02272F"/>
<path d="M118.612 30.7908V36.2153C118.597 39.1989 116.361 41.6238 113.606 41.6398H85.4991L90.5086 36.2313V36.2153H112.747C112.671 36.2053 112.59 36.1833 112.509 36.1693C113.129 36.0811 113.608 35.5105 113.608 34.8176V32.1504C113.608 31.4977 113.177 30.949 112.608 30.8188C112.662 30.8088 112.714 30.7988 112.765 30.7928H90.5086C87.8514 30.7828 85.6765 28.5401 85.4991 25.7067V19.9418H85.5139V19.9358C85.5139 17.0504 87.5983 14.6875 90.2221 14.5173H112.311C112.374 14.5113 112.435 14.5073 112.503 14.5073C112.571 14.5073 112.636 14.5133 112.699 14.5173H118.603L113.599 19.9418H91.7761C91.1553 19.9418 90.6342 20.4244 90.5086 21.0612C90.4938 21.1493 90.4845 21.2474 90.4845 21.3415C90.4845 21.4356 90.4938 21.5337 90.5086 21.6218V24.0047C90.5086 24.6014 90.8578 25.108 91.3493 25.2942C91.4731 25.3403 91.6117 25.3663 91.7595 25.3663H113.604C116.358 25.3863 118.595 27.8052 118.61 30.7948L118.612 30.7908Z" fill="#02272F"/>
<path d="M219.866 19.938V25.3605C219.849 28.3501 217.617 30.769 214.862 30.787H191.761V36.2095L186.757 41.636V25.3585H213.395C213.463 25.3725 213.534 25.3806 213.606 25.3806C213.678 25.3806 213.748 25.3725 213.816 25.3585H214.005C213.972 25.3545 213.936 25.3485 213.903 25.3405C214.454 25.1983 214.862 24.6577 214.862 24.0189V21.2796C214.862 20.6369 214.454 20.1002 213.903 19.9581C213.942 19.9501 213.983 19.94 214.021 19.936H213.798C213.735 19.926 213.672 19.918 213.608 19.918C213.543 19.918 213.478 19.926 213.417 19.936H186.759V14.5135H214.864C217.621 14.5316 219.851 16.9505 219.868 19.936L219.866 19.938Z" fill="#02272F"/>
<path d="M278 41.6403H272.994L270.182 36.2118H258.94L255.514 30.7893H267.373L264.561 25.3629L263.947 24.1794L261.749 19.9384H261.139L258.94 24.1794L258.326 25.3629L255.514 30.7893L252.705 36.2118L249.893 41.6403H244.889L247.702 36.2118L249.893 31.9788L250.51 30.7893L253.323 25.3629L256.131 19.9384L258.94 14.5159H263.947L266.756 19.9384L269.567 25.3629L272.377 30.7893L272.994 31.9788L275.188 36.2118L278 41.6403Z" fill="#02272F"/>
</svg>
